HIERARCHY
ROOT Hips
{
  OFFSET 666.929 92.018 240.213
  CHANNELS 6 Xposition Yposition Zposition Zrotation Xrotation Yrotation
  JOINT RightUpLeg
  {
    OFFSET -9.29713 -1.61933 -0.00216653
    CHANNELS 3 Zrotation Xrotation Yrotation
    JOINT RightLeg
    {
      OFFSET -0.0960174 -41.8784 0.0518774
      CHANNELS 3 Zrotation Xrotation Yrotation
      JOINT RightFoot
      {
        OFFSET 0.640077 -41.2901 0.594029
        CHANNELS 3 Zrotation Xrotation Yrotation
        End Site
        {
          OFFSET 0 -7.69 17.5
        }
      }
    }
  }
  JOINT LeftUpLeg
  {
    OFFSET 9.25271 -1.57779 -0.00790344
    CHANNELS 3 Zrotation Xrotation Yrotation
    JOINT LeftLeg
    {
      OFFSET -0.039202 -41.8727 -0.0184185
      CHANNELS 3 Zrotation Xrotation Yrotation
      JOINT LeftFoot
      {
        OFFSET -1.61914 -42.1234 0.183781
        CHANNELS 3 Zrotation Xrotation Yrotation
        End Site
        {
          OFFSET 0 -7.69 17.5
        }
      }
    }
  }
  JOINT Spine
  {
    OFFSET -0.0606732 14.309 0.0290433
    CHANNELS 3 Zrotation Xrotation Yrotation
    JOINT Spine1
    {
      OFFSET -0.0215329 9.72038 0.0138258
      CHANNELS 3 Zrotation Xrotation Yrotation
      JOINT Spine2
      {
        OFFSET -0.0121414 10.1279 0.0293225
        CHANNELS 3 Zrotation Xrotation Yrotation
        JOINT Spine3
        {
          OFFSET -0.0264151 9.72256 0.0189618
          CHANNELS 3 Zrotation Xrotation Yrotation
          JOINT Neck
          {
            OFFSET -0.0499375 10.3936 0.0317747
            CHANNELS 3 Zrotation Xrotation Yrotation
            JOINT Head
            {
              OFFSET -0.0192437 9.46991 0.0544912
              CHANNELS 3 Zrotation Xrotation Yrotation
              End Site
              {
                OFFSET 0 15.95 0
              }
            }
          }
          JOINT RightShoulder
          {
            OFFSET -3.22109 6.91215 0.0261624
            CHANNELS 3 Zrotation Xrotation Yrotation
            JOINT RightArm
            {
              OFFSET -12.8286 -0.0758378 0.0345821
              CHANNELS 3 Zrotation Xrotation Yrotation
              JOINT RightForeArm
              {
                OFFSET -26.5318 -0.0981562 -0.0633905
                CHANNELS 3 Zrotation Xrotation Yrotation
                JOINT RightHand
                {
                  OFFSET -25.9847 -0.0458948 0.0984586
                  CHANNELS 3 Zrotation Xrotation Yrotation
                  JOINT RightHandThumb1
                  {
                    OFFSET -2.48905 0.190105 3.12053
                    CHANNELS 3 Zrotation Xrotation Yrotation
                    JOINT RightHandThumb2
                    {
                      OFFSET -3.68274 0 0
                      CHANNELS 3 Zrotation Xrotation Yrotation
                      JOINT RightHandThumb3
                      {
                        OFFSET -2.55832 0 0
                        CHANNELS 3 Zrotation Xrotation Yrotation
                        End Site
                        {
                          OFFSET -2.194 0 0
                        }
                      }
                    }
                  }
                  JOINT RightInHandIndex
                  {
                    OFFSET -3.22368 0.508421 1.97842
                    CHANNELS 3 Zrotation Xrotation Yrotation
                    JOINT RightHandIndex1
                    {
                      OFFSET -5.21684 -0.091368 0.999158
                      CHANNELS 3 Zrotation Xrotation Yrotation
                      JOINT RightHandIndex2
                      {
                        OFFSET -3.61937 0 0
                        CHANNELS 3 Zrotation Xrotation Yrotation
                        JOINT RightHandIndex3
                        {
                          OFFSET -2.0521 0 0
                          CHANNELS 3 Zrotation Xrotation Yrotation
                          End Site
                          {
                            OFFSET -1.805 0 0
                          }
                        }
                      }
                    }
                  }
                  JOINT RightInHandMiddle
                  {
                    OFFSET -3.38211 0.517263 0.756737
                    CHANNELS 3 Zrotation Xrotation Yrotation
                    JOINT RightHandMiddle1
                    {
                      OFFSET -5.17411 -0.084 0.313895
                      CHANNELS 3 Zrotation Xrotation Yrotation
                      JOINT RightHandMiddle2
                      {
                        OFFSET -3.94947 0 0
                        CHANNELS 3 Zrotation Xrotation Yrotation
                        JOINT RightHandMiddle3
                        {
                          OFFSET -2.47579 0 0
                          CHANNELS 3 Zrotation Xrotation Yrotation
                          End Site
                          {
                            OFFSET -1.975 0 0
                          }
                        }
                      }
                    }
                  }
                  JOINT RightInHandRing
                  {
                    OFFSET -3.36516 0.537895 -0.128947
                    CHANNELS 3 Zrotation Xrotation Yrotation
                    JOINT RightHandRing1
                    {
                      OFFSET -4.63474 -0.022105 -0.478947
                      CHANNELS 3 Zrotation Xrotation Yrotation
                      JOINT RightHandRing2
                      {
                        OFFSET -3.44238 0 0
                        CHANNELS 3 Zrotation Xrotation Yrotation
                        JOINT RightHandRing3
                        {
                          OFFSET -2.3881 0 0
                          CHANNELS 3 Zrotation Xrotation Yrotation
                          End Site
                          {
                            OFFSET -1.857 0 0
                          }
                        }
                      }
                    }
                  }
                  JOINT RightInHandPinky
                  {
                    OFFSET -3.16105 0.469368 -1.20179
                    CHANNELS 3 Zrotation Xrotation Yrotation
                    JOINT RightHandPinky1
                    {
                      OFFSET -4.14105 -0.022105 -1.09053
                      CHANNELS 3 Zrotation Xrotation Yrotation
                      JOINT RightHandPinky2
                      {
                        OFFSET -2.75653 0 0
                        CHANNELS 3 Zrotation Xrotation Yrotation
                        JOINT RightHandPinky3
                        {
                          OFFSET -1.74189 0 0
                          CHANNELS 3 Zrotation Xrotation Yrotation
                          End Site
                          {
                            OFFSET -1.645 0 0
                          }
                        }
                      }
                    }
                  }
                }
              }
            }
          }
          JOINT LeftShoulder
          {
            OFFSET 3.18807 6.923 -0.00225834
            CHANNELS 3 Zrotation Xrotation Yrotation
            JOINT LeftArm
            {
              OFFSET 12.7812 0.000124506 -0.0210528
              CHANNELS 3 Zrotation Xrotation Yrotation
              JOINT LeftForeArm
              {
                OFFSET 26.5151 0.0429551 -0.0429125
                CHANNELS 3 Zrotation Xrotation Yrotation
                JOINT LeftHand
                {
                  OFFSET 26.0174 0.181648 -0.0288711
                  CHANNELS 3 Zrotation Xrotation Yrotation
                  JOINT LeftHandThumb1
                  {
                    OFFSET 2.48905 0.190105 3.12053
                    CHANNELS 3 Zrotation Xrotation Yrotation
                    JOINT LeftHandThumb2
                    {
                      OFFSET 3.68274 0 0
                      CHANNELS 3 Zrotation Xrotation Yrotation
                      JOINT LeftHandThumb3
                      {
                        OFFSET 2.55832 0 0
                        CHANNELS 3 Zrotation Xrotation Yrotation
                        End Site
                        {
                          OFFSET 2.194 0 0
                        }
                      }
                    }
                  }
                  JOINT LeftInHandIndex
                  {
                    OFFSET 3.22368 0.508421 1.97842
                    CHANNELS 3 Zrotation Xrotation Yrotation
                    JOINT LeftHandIndex1
                    {
                      OFFSET 5.21684 -0.091368 0.999158
                      CHANNELS 3 Zrotation Xrotation Yrotation
                      JOINT LeftHandIndex2
                      {
                        OFFSET 3.61937 0 0
                        CHANNELS 3 Zrotation Xrotation Yrotation
                        JOINT LeftHandIndex3
                        {
                          OFFSET 2.0521 0 0
                          CHANNELS 3 Zrotation Xrotation Yrotation
                          End Site
                          {
                            OFFSET 1.805 0 0
                          }
                        }
                      }
                    }
                  }
                  JOINT LeftInHandMiddle
                  {
                    OFFSET 3.38211 0.517263 0.756737
                    CHANNELS 3 Zrotation Xrotation Yrotation
                    JOINT LeftHandMiddle1
                    {
                      OFFSET 5.17411 -0.084 0.313895
                      CHANNELS 3 Zrotation Xrotation Yrotation
                      JOINT LeftHandMiddle2
                      {
                        OFFSET 3.94947 0 0
                        CHANNELS 3 Zrotation Xrotation Yrotation
                        JOINT LeftHandMiddle3
                        {
                          OFFSET 2.47579 0 0
                          CHANNELS 3 Zrotation Xrotation Yrotation
                          End Site
                          {
                            OFFSET 1.975 0 0
                          }
                        }
                      }
                    }
                  }
                  JOINT LeftInHandRing
                  {
                    OFFSET 3.36516 0.537895 -0.128947
                    CHANNELS 3 Zrotation Xrotation Yrotation
                    JOINT LeftHandRing1
                    {
                      OFFSET 4.63474 -0.022105 -0.478947
                      CHANNELS 3 Zrotation Xrotation Yrotation
                      JOINT LeftHandRing2
                      {
                        OFFSET 3.44238 0 0
                        CHANNELS 3 Zrotation Xrotation Yrotation
                        JOINT LeftHandRing3
                        {
                          OFFSET 2.3881 0 0
                          CHANNELS 3 Zrotation Xrotation Yrotation
                          End Site
                          {
                            OFFSET 1.857 0 0
                          }
                        }
                      }
                    }
                  }
                  JOINT LeftInHandPinky
                  {
                    OFFSET 3.16105 0.469368 -1.20179
                    CHANNELS 3 Zrotation Xrotation Yrotation
                    JOINT LeftHandPinky1
                    {
                      OFFSET 4.14105 -0.022105 -1.09053
                      CHANNELS 3 Zrotation Xrotation Yrotation
                      JOINT LeftHandPinky2
                      {
                        OFFSET 2.75653 0 0
                        CHANNELS 3 Zrotation Xrotation Yrotation
                        JOINT LeftHandPinky3
                        {
                          OFFSET 1.74189 0 0
                          CHANNELS 3 Zrotation Xrotation Yrotation
                          End Site
                          {
                            OFFSET 1.645 0 0
                          }
                        }
                      }
                    }
                  }
                }
              }
            }
          }
        }
      }
    }
  }
}
MOTION
Frames:	5
Frame Time:	0.00833333
674.189 89.6116 222.857 30.7577 28.1186 -44.1498 -32.6439 -54.1704 -32.7827 0.523659 23.0188 -22.1776 10.9691 0.298225 22.4383 0.242213 -67.4827 -25.0037 -6.77915 29.6885 4.17311 -9.86186 -7.49897 16.6682 7.02945 6.95196 -2.24285 1.72888 1.81675 -0.35937 2.86541 3.01899 -0.515978 -0.514033 -0.566595 0.0476666 -0.515263 -0.566644 0.0518929 -9.29755 -10.1663 0.948953 -3.53651 -9.5848 -5.37509 68.6311 20.6548 69.2821 0.617244 -31.25 -12.2337 44.5109 -8.34577 2.05213 28.184 10.7294 19.1592 -4.73928e-15 5.96354e-16 -10 -6.66955e-15 -1.19271e-15 -10 9.54166e-15 0 -0 19.9818 0.871897 2.3964 24 7.95139e-16 -6.36111e-15 20 3.18055e-15 3.18055e-15 9.54166e-15 0 -0 20 7.95139e-16 3.18055e-15 24 1.59028e-15 -9.54166e-15 20 -3.18055e-15 -0 9.54166e-15 0 -0 19.9748 -1.02565 -2.81938 24 0 -6.36111e-15 20 6.36111e-15 9.54166e-15 9.54166e-15 0 -0 19.7815 -3.00948 -8.30515 24 0 9.54166e-15 20 3.18055e-15 9.54166e-15 -0.25711 -10.435 -27.4502 -40.1884 39.5997 -69.7834 18.6347 -63.2963 9.56064 -2.96032 4.83649 -13.9312 -28.184 10.7294 -19.1592 -3.22962e-15 0 10 -0 0 10 2.38542e-15 6.36111e-15 3.32964e-15 -19.9818 0.871897 -2.3964 -24 0 -1.43125e-14 -20 3.18055e-15 -1.90833e-14 2.38542e-15 6.36111e-15 3.32964e-15 -20 0 -9.54166e-15 -24 0 -2.54444e-14 -20 6.36111e-15 -3.18055e-15 2.38542e-15 6.36111e-15 3.32964e-15 -19.9748 -1.02565 2.81938 -24 3.18055e-15 -6.36111e-15 -20 7.95139e-15 -1.27222e-14 2.38542e-15 6.36111e-15 3.32964e-15 -19.7815 -3.00948 8.30515 -24 1.59028e-15 -2.22639e-14 -20 7.95139e-15 -3.18055e-15 
674.198 89.599 222.866 30.7884 28.0199 -44.2726 -32.6572 -54.2296 -32.585 0.563433 23.0301 -22.2467 10.9469 0.380864 22.4165 0.515256 -67.432 -24.6952 -6.88528 29.718 4.22414 -9.86171 -7.56538 16.688 7.01051 6.95664 -2.22939 1.72428 1.82026 -0.35635 2.85781 3.02158 -0.511114 -0.517507 -0.564659 0.0487009 -0.518753 -0.56447 0.0529344 -9.35015 -10.1288 0.968158 -3.43323 -9.47512 -5.43523 68.6924 20.5788 69.13 1.10071 -33.2033 -11.0531 43.6334 -7.42569 0.0472504 28.184 10.7294 19.1592 -4.66917e-15 9.93923e-16 -10 -1.3344e-15 1.59028e-15 -10 -3.18055e-15 0 -6.36111e-15 19.9818 0.871897 2.3964 24 4.77083e-15 1.27222e-14 20 -6.36111e-15 3.18055e-15 -3.18055e-15 0 -6.36111e-15 20 0 -6.36111e-15 24 4.77083e-15 6.36111e-15 20 0 9.54166e-15 -3.18055e-15 0 -6.36111e-15 19.9748 -1.02565 -2.81938 24 2.38542e-15 1.90833e-14 20 0 6.36111e-15 -3.18055e-15 0 -6.36111e-15 19.7815 -3.00948 -8.30515 24 -1.59028e-15 1.59028e-14 20 0 1.59028e-14 -0.258555 -10.4237 -27.452 -40.1738 39.5534 -69.8092 18.6075 -62.9689 9.58614 -2.88637 4.72248 -13.9429 -28.184 10.7294 -19.1592 7.02006e-15 -3.18055e-15 10 -0 0 10 2.88238e-15 0 -3.18055e-15 -19.9818 0.871897 -2.3964 -24 6.36111e-15 1.59028e-15 -20 1.27222e-14 9.54166e-15 2.88238e-15 0 -3.18055e-15 -20 -3.18055e-15 3.18055e-15 -24 3.18055e-15 -0 -20 3.18055e-15 -3.18055e-15 2.88238e-15 0 -3.18055e-15 -19.9748 -1.02565 2.81938 -24 -3.18055e-15 -3.18055e-15 -20 1.11319e-14 -3.18055e-15 2.88238e-15 0 -3.18055e-15 -19.7815 -3.00948 8.30515 -24 -1.59028e-15 6.36111e-15 -20 0 -0 
674.206 89.5842 222.87 30.818 27.881 -44.4353 -32.6487 -54.2795 -32.3338 0.603869 23.0454 -22.3008 10.9285 0.459559 22.4005 0.851765 -67.3557 -24.3107 -6.99949 29.7584 4.3016 -9.86616 -7.64286 16.7077 6.97687 6.98044 -2.20462 1.716 1.82289 -0.350314 2.84414 3.02922 -0.501173 -0.521259 -0.562687 0.0499893 -0.522519 -0.562308 0.0542307 -9.42074 -10.0946 1.01525 -3.42842 -9.41333 -5.41539 68.8743 20.4435 68.8731 1.53584 -33.7869 -10.3717 43.3788 -7.26693 -0.473269 28.184 10.7294 19.1592 -2.63252e-15 -1.19271e-15 -10 -3.65023e-15 -2.38542e-15 -10 3.18055e-15 1.59028e-15 3.18055e-15 19.9818 0.871897 2.3964 24 3.18055e-15 -0 20 6.36111e-15 -0 3.18055e-15 1.59028e-15 3.18055e-15 20 -1.59028e-15 -9.54166e-15 24 -7.95139e-16 -0 20 3.18055e-15 9.54166e-15 3.18055e-15 1.59028e-15 3.18055e-15 19.9748 -1.02565 -2.81938 24 -2.38542e-15 -3.18055e-15 20 -3.18055e-15 -6.36111e-15 3.18055e-15 1.59028e-15 3.18055e-15 19.7815 -3.00948 -8.30515 24 -2.38542e-15 -3.18055e-15 20 0 -6.36111e-15 -0.267749 -10.4266 -27.4548 -40.1545 39.5022 -69.8378 18.6301 -62.6388 9.68321 -2.78686 4.64034 -13.9381 -28.184 10.7294 -19.1592 2.6688e-15 3.18055e-15 10 7.02006e-15 -3.18055e-15 10 -2.18663e-15 -6.36111e-15 -1.44119e-15 -19.9818 0.871897 -2.3964 -24 9.54166e-15 -1.43125e-14 -20 9.54166e-15 -9.54166e-15 -2.18663e-15 -6.36111e-15 -1.44119e-15 -20 -3.18055e-15 -9.54166e-15 -24 -6.36111e-15 -1.90833e-14 -20 6.36111e-15 -0 -2.18663e-15 -6.36111e-15 -1.44119e-15 -19.9748 -1.02565 2.81938 -24 0 -1.27222e-14 -20 0 -9.54166e-15 -2.18663e-15 -6.36111e-15 -1.44119e-15 -19.7815 -3.00948 8.30515 -24 -9.54166e-15 -1.90833e-14 -20 0 -6.36111e-15 
674.225 89.5688 222.875 30.8627 27.7175 -44.6201 -32.6318 -54.3347 -32.0743 0.621001 23.0656 -22.3237 10.9111 0.532533 22.3942 1.15989 -67.2777 -23.9158 -7.09403 29.8196 4.36122 -9.87618 -7.72425 16.7316 6.93128 7.00849 -2.17944 1.7047 1.82392 -0.344431 2.82553 3.03847 -0.491633 -0.525215 -0.560383 0.0553019 -0.526491 -0.560165 0.0595621 -9.4925 -10.0462 1.10453 -3.41857 -9.35041 -5.42219 69.5947 19.835 68.0554 2.53144 -33.7666 -9.19353 43.97 -7.84344 0.287349 28.184 10.7294 19.1592 -1.53407e-14 0 -10 -1.17944e-14 -2.78299e-15 -10 1.76556e-31 -3.18055e-15 3.18055e-15 19.9818 0.871897 2.3964 24 7.95139e-16 9.54166e-15 20 0 -3.18055e-15 1.76556e-31 -3.18055e-15 3.18055e-15 20 1.98785e-15 6.36111e-15 24 3.97569e-15 -6.36111e-15 20 3.18055e-15 -3.18055e-15 1.76556e-31 -3.18055e-15 3.18055e-15 19.9748 -1.02565 -2.81938 24 7.95139e-16 9.54166e-15 20 0 -3.18055e-15 1.76556e-31 -3.18055e-15 3.18055e-15 19.7815 -3.00948 -8.30515 24 -7.95139e-16 6.36111e-15 20 0 -1.27222e-14 -0.278783 -10.4416 -27.4569 -40.1279 39.4522 -69.8594 18.6894 -62.8035 9.82866 -2.59625 5.11159 -13.893 -28.184 10.7294 -19.1592 -5.60818e-16 3.18055e-15 10 5.3376e-15 6.36111e-15 10 -0 0 6.4605e-15 -19.9818 0.871897 -2.3964 -24 0 -1.11319e-14 -20 7.95139e-15 1.27222e-14 -0 0 6.4605e-15 -20 -3.18055e-15 -1.59028e-15 -24 -3.18055e-15 -1.59028e-15 -20 0 -3.18055e-15 -0 0 6.4605e-15 -19.9748 -1.02565 2.81938 -24 3.18055e-15 -1.59028e-15 -20 3.18055e-15 -3.18055e-15 -0 0 6.4605e-15 -19.7815 -3.00948 8.30515 -24 -3.18055e-15 -0 -20 -6.36111e-15 -6.36111e-15 
674.245 89.5535 222.877 30.9184 27.564 -44.8311 -32.5825 -54.4325 -31.7982 0.607225 23.0836 -22.3312 10.896 0.617726 22.3838 1.49002 -67.2122 -23.5042 -7.19309 29.874 4.41948 -9.86705 -7.80145 16.7769 6.89311 7.0276 -2.14599 1.69541 1.8241 -0.336459 2.81017 3.04353 -0.478547 -0.530369 -0.558192 0.06062 -0.53167 -0.558038 0.0649011 -9.57831 -9.99584 1.19887 -3.42189 -9.29859 -5.43746 69.8576 19.6235 67.8216 3.04328 -34.1793 -8.54582 43.9183 -7.66085 -0.0261005 28.184 10.7294 19.1592 -7.54705e-15 -1.59028e-15 -10 -1.20748e-14 -4.37326e-15 -10 3.18055e-15 3.18055e-15 -0 19.9818 0.871897 2.3964 24 0 -2.22639e-14 20 -3.18055e-15 -1.27222e-14 3.18055e-15 3.18055e-15 -0 20 -2.38542e-15 -9.54166e-15 24 -3.18055e-15 -1.59028e-14 20 0 -6.36111e-15 3.18055e-15 3.18055e-15 -0 19.9748 -1.02565 -2.81938 24 -2.38542e-15 -1.27222e-14 20 3.18055e-15 -9.54166e-15 3.18055e-15 3.18055e-15 -0 19.7815 -3.00948 -8.30515 24 -4.77083e-15 -9.54166e-15 20 -3.18055e-15 -1.59028e-14 -0.291151 -10.4627 -27.4568 -40.0947 39.4183 -69.8797 18.7411 -62.8554 9.95703 -2.36963 5.57424 -13.8702 -28.184 10.7294 -19.1592 -3.79044e-15 3.18055e-15 10 7.02006e-15 -3.18055e-15 10 -2.5842e-15 3.18055e-15 1.88845e-15 -19.9818 0.871897 -2.3964 -24 -3.18055e-15 -1.59028e-15 -20 1.59028e-15 -0 -2.5842e-15 3.18055e-15 1.88845e-15 -20 3.18055e-15 5.56597e-15 -24 6.36111e-15 1.59028e-15 -20 3.18055e-15 -1.27222e-14 -2.5842e-15 3.18055e-15 1.88845e-15 -19.9748 -1.02565 2.81938 -24 0 -7.95139e-15 -20 3.18055e-15 3.18055e-15 -2.5842e-15 3.18055e-15 1.88845e-15 -19.7815 -3.00948 8.30515 -24 -4.77083e-15 -7.95139e-15 -20 7.95139e-15 -0 
